<svg width="87" height="44" viewBox="0 0 87 44" fill="none" xmlns="http://www.w3.org/2000/svg">
<path d="M38.3125 17.9375C37.9167 18.6458 37.7188 20.3438 37.7188 23.0312V32.7188C37.7188 35.6562 36.1979 38.2083 33.1562 40.375C30.0104 42.6458 26.1562 43.7812 21.5938 43.7812C15.2604 43.7812 10.2083 41.7917 6.4375 37.8125C2.79167 34.0208 0.96875 29.1875 0.96875 23.3125C0.96875 17.0625 2.82292 11.8542 6.53125 7.6875C10.6771 3 16.3854 0.65625 23.6562 0.65625C28.5104 0.65625 32.3542 1.59375 35.1875 3.46875L34.6875 12.6875L34.4375 12.75C33.7083 11.4792 32.2708 10.4375 30.125 9.625C28.0833 8.85417 25.9375 8.46875 23.6875 8.46875C21.4583 8.46875 19.5 8.82292 17.8125 9.53125C16.1458 10.2396 14.7292 11.25 13.5625 12.5625C11.1042 15.25 9.875 18.8021 9.875 23.2188C9.875 27.0729 10.9583 30.1667 13.125 32.5C15.2917 34.8125 18.0833 35.9688 21.5 35.9688C25.2708 35.9688 27.8125 34.9896 29.125 33.0312C29.5417 32.4062 29.75 31.6979 29.75 30.9062V25.7188H25.7188C23.5521 25.7188 22.375 25.9062 22.1875 26.2812L22.0938 26.25L21.8125 18.0938C22.3958 18.2604 24.7604 18.3438 28.9062 18.3438H32.5938C34.8854 18.3438 36.7604 18.1875 38.2188 17.875L38.3125 17.9375ZM50.0938 38.0625C48.1979 36.25 46.6979 34.0729 45.5938 31.5312C44.5104 28.9896 43.9688 26.2083 43.9688 23.1875C43.9688 20.1458 44.4792 17.2708 45.5 14.5625C46.5208 11.8542 47.9792 9.46875 49.875 7.40625C51.7708 5.34375 54.0625 3.70833 56.75 2.5C59.4375 1.27083 62.4479 0.65625 65.7812 0.65625C71.5312 0.65625 76.375 2.46875 80.3125 6.09375C84.5208 9.96875 86.625 15.1979 86.625 21.7812C86.625 28.1562 84.4583 33.4583 80.125 37.6875C77.4583 40.2917 74.2812 42.0833 70.5938 43.0625C68.7812 43.5417 66.6562 43.7812 64.2188 43.7812C61.8021 43.7812 59.3125 43.2812 56.75 42.2812C54.2083 41.2812 51.9896 39.875 50.0938 38.0625ZM52.6562 22.75C52.6562 24.6875 52.9792 26.4688 53.625 28.0938C54.2708 29.7188 55.1667 31.1146 56.3125 32.2812C58.75 34.7396 61.8854 35.9688 65.7188 35.9688C69.3646 35.9688 72.2917 34.7917 74.5 32.4375C76.75 30 77.875 26.6771 77.875 22.4688C77.875 18.5104 76.8021 15.2083 74.6562 12.5625C72.3438 9.72917 69.1771 8.3125 65.1562 8.3125C61.2604 8.3125 58.1667 9.75 55.875 12.625C53.7292 15.3125 52.6562 18.6875 52.6562 22.75Z" fill="black"/>
</svg>
